<mxfile host="app.diagrams.net" modified="2024-02-09T11:24:54.150Z" agent="Mozilla/5.0 (Windows NT 10.0; Win64; x64) AppleWebKit/537.36 (KHTML, like Gecko) Chrome/121.0.0.0 Safari/537.36 Edg/121.0.0.0" version="23.1.2" etag="MFkbl6aBIA2-zwD8rSK9" type="github">
  <diagram name="Page-1" id="QXwcy0jlL2hYwToPV_Kd">
    <mxGraphModel>
      <root>
        <mxCell id="0" />
        <mxCell id="1" parent="0" />
      </root>
    </mxGraphModel>
  </diagram>
</mxfile>
